# xmcd
# 
# Track frame offsets:
#     150
#     17882
#     40539
#     56746
#     78503
#     104910
#     130717
# 
# Disc length: 2061
# 
# Revision: 0
# Processed by: cddbd v1.5.2PL0 Copyright (c) Steve Scherf et al.
# Submitted via: fre:ac v1.0.17
# 
DISCID=58080b07
DTITLE=Jan W. - Alles Wolken E.P
DYEAR=2014
DGENRE=Synthpop
TTITLE0=Rosa Wolken
TTITLE1=Alles
TTITLE2=Ich fange dich dann
TTITLE3=Was nun und dann
TTITLE4=Ich fange dich dann (Jan Remix)
TTITLE5=Für Immer (Dance Remix)
TTITLE6=Du spürst es nicht (Club Remix)
EXTD=
EXTT0=
EXTT1=
EXTT2=
EXTT3=
EXTT4=
EXTT5=
EXTT6=
PLAYORDER=
